{"title":"Care.Bears.The.Giving.Festival.2010.DvDRip.H264.Feel-Free","uid":5944811,"size":609268610,"categoryP":"video","categoryS":"movies","magnet":"?xt=urn:btih:372b32e7d32fe5e6cd3a42b7675765d3d2ce22bf&amp;dn=Care.Bears.The.Giving.Festival.2010.DvDRip.H264.Feel-Free&amp;tr=udp%3A%2F%2Ftracker.openbittorrent.com%3A80&amp;tr=udp%3A%2F%2Fopen.demonii.com%3A1337&amp;tr=udp%3A%2F%2Ftracker.coppersurfer.tk%3A6969&amp;tr=udp%3A%2F%2Fexodus.desync.com%3A6969","seeders":2,"leechers":0,"uploader":"neon","files":8,"time":1289312178,"description":"Genre:Animation\nLanguage:English\nLink: http://www.amazon.com/dp/B003Z6HSKQ/\nSource:DVDR-INSECTS\n\nGeneral\nComplete name :Care.Bears.The.Giving.Festival.2010.DvDRip.H264.Feel-Free\nFormat : MPEG-4\nFormat profile : Base Media\nCodec ID : mp42\nFile size : 579 MiB\nDuration : 1h 7mn\nOverall bit rate : 1 196 Kbps\nVideo #1\nCodec ID : avc1\nCodec ID/Info : Advanced Video Coding\nDuration : 1h 7mn\nBit rate mode : Variable\nBit rate : 716 Kbps\nWidth : 720 pixels\nHeight : 384 pixels\nDisplay aspect ratio : 1.875\nFrame rate mode : Constant\nFrame rate : 23.976 fps\nResolution : 24 bits\nColorimetry : 4:2:0\nScan type : Progressive\nBits/(Pixel*Frame) : 0.108\nStream size : 347 MiB (60%)\nAudio #2\nID : 2\nFormat : AAC\nFormat/Info : Advanced Audio Codec\nFormat version : Version 4\nFormat profile : LC\nFormat settings, SBR : No\nCodec ID : 40\nDuration : 1h 7mn\nBit rate mode : Constant\nBit rate : 476 Kbps\nNominal bit rate : 480 Kbps\nChannel(s) : 6 channels\nChannel positions : Front: L C R, Rear: L R, LFE\nSampling rate : 48.0 KHz\nResolution : 16 bits\nStream size : 231 MiB (40%)\n\nPlot:\nCare Power On! Join Funshine, Share, Cheer and the whole Care Power Team as they organize\nthe annual Giving Festival in this adorable tale!\n\n","torrent":{"xt":"urn:btih:372b32e7d32fe5e6cd3a42b7675765d3d2ce22bf","amp;dn":"Care.Bears.The.Giving.Festival.2010.DvDRip.H264.Feel-Free","amp;tr":["udp%3A%2F%2Ftracker.openbittorrent.com%3A80","udp%3A%2F%2Fopen.demonii.com%3A1337","udp%3A%2F%2Ftracker.coppersurfer.tk%3A6969","udp%3A%2F%2Fexodus.desync.com%3A6969"],"infoHash":"372b32e7d32fe5e6cd3a42b7675765d3d2ce22bf","infoHashBuffer":{"type":"Buffer","data":[55,43,50,231,211,47,229,230,205,58,66,183,103,87,101,211,210,206,34,191]},"announce":[],"urlList":[]}}